<svg width="128" height="128" viewBox="0 0 128 128" fill="none" xmlns="http://www.w3.org/2000/svg">
  <rect width="128" height="128" rx="32" fill="#07111F"/>
  <rect x="18" y="18" width="92" height="92" rx="28" fill="url(#paint0_linear)" fill-opacity="0.18" stroke="rgba(255,255,255,0.24)"/>
  <path d="M38 53C38 43.6112 45.6112 36 55 36H73C82.3888 36 90 43.6112 90 53V80C90 88.8366 82.8366 96 74 96H54C45.1634 96 38 88.8366 38 80V53Z" fill="#F6F1E8"/>
  <path d="M48 43C48 38.5817 51.5817 35 56 35H72C76.4183 35 80 38.5817 80 43V48H48V43Z" fill="#DDE7F2"/>
  <path d="M53 63C53 57.4772 57.4772 53 63 53H65C70.5228 53 75 57.4772 75 63V76H53V63Z" fill="#07111F"/>
  <circle cx="46" cy="50" r="7" fill="#F0C777"/>
  <circle cx="82" cy="50" r="7" fill="#F0C777"/>
  <path d="M54 84C54 81.7909 55.7909 80 58 80H70C72.2091 80 74 81.7909 74 84V87C74 89.2091 72.2091 91 70 91H58C55.7909 91 54 89.2091 54 87V84Z" fill="#D4A45E"/>
  <defs>
    <linearGradient id="paint0_linear" x1="20" y1="20" x2="108" y2="108" gradientUnits="userSpaceOnUse">
      <stop stop-color="white"/>
      <stop offset="1" stop-color="#7AA27C"/>
    </linearGradient>
  </defs>
</svg>
